<?xml version="1.0" encoding="utf-8"?>
<!-- Generator: Adobe Illustrator 27.5.0, SVG Export Plug-In . SVG Version: 6.00 Build 0)  -->
<svg version="1.1" xmlns="http://www.w3.org/2000/svg" xmlns:xlink="http://www.w3.org/1999/xlink" x="0px" y="0px"
	 viewBox="0 0 361.1 407.8" style="enable-background:new 0 0 361.1 407.8;" xml:space="preserve">
<style type="text/css">
	.st0{display:none;}
	.st1{fill:#DC0000;}
	.st2{fill:#FFFFFF;}
	.st3{fill:#007BBF;}
</style>
<g id="Layer_1" class="st0">
	
		<image style="display:inline;overflow:visible;" width="412" height="547" xlink:href="../../../../../../macbeth/Library/Messages/Attachments/91/01/AB4FD9CF-DBBB-4876-9786-E36E55EDEBD4/logo marker 01.png"  transform="matrix(0.6 0 0 0.6 60.4444 44.8889)">
	</image>
</g>
<g id="Layer_2">
	<path class="st1" d="M180,346.4c0,0-98.6-141-98.6-190.7C81.5,95,127.7,52.9,180,52.9c53.2,0,100.2,42.1,100.2,102.9
		C280.3,206.3,179,347.4,180,346.4z"/>
	<ellipse class="st2" cx="180.3" cy="151" rx="65.2" ry="64.9"/>
	<g>
		<g>
			<path class="st3" d="M174.7,109.8l-29.5,74.9h13.5l22.2-59.6v-15.3C180.9,109.8,175.4,109.8,174.7,109.8z"/>
			<path class="st3" d="M187.1,109.8l29.5,74.9h-13.5l-22.2-59.6v-15.3C180.9,109.8,186.4,109.8,187.1,109.8z"/>
			<rect x="162.5" y="156.2" class="st3" width="39.5" height="8.2"/>
		</g>
	</g>
	<path class="st1" d="M136.2,306.1c0,0-40.6,5.7-40.6,27.4c0,21.2,54.2,28.8,85,28.8s84.6-7,84.6-28.8s-40.7-27.6-40.7-27.6v7.3
		c0,0,33.3,6.8,33.3,20c0,13.1-41.1,22.3-77,22.3c-39,0-77.6-11.3-77.6-22.3c0-12.8,33.2-19.8,33.2-19.8S136.2,305.6,136.2,306.1z"
		/>
</g>
</svg>